# xmcd
#
# Track frame offsets:
#	150
#	22982
#	46080
#	65585
#
# Disc length: 929 seconds
#
# Revision: 1
# Processed by: cddbd v1.5.1PL0 Copyright (c) Steve Scherf et al.
# Submitted via: CDex 1.50Beta5
#
DISCID=29039f04
DTITLE=こおろぎさとみ&ショッカーO野 - Week
DYEAR=1900
DGENRE=Pop
TTITLE0=Week
TTITLE1=電光石火!ミッドナイトヒーロー
TTITLE2=勝手にラヴソング
TTITLE3=勝手にラヴソング (off vocal)
EXTD=
EXTT0=
EXTT1=
EXTT2=
EXTT3=
PLAYORDER=
